<mxfile host="app.diagrams.net" agent="Mozilla/5.0 (X11; Ubuntu; Linux x86_64; rv:136.0) Gecko/20100101 Firefox/136.0" version="26.0.14">
  <diagram name="Page-1" id="xIaOOBlf4WDWhy02mrvC">
    <mxGraphModel dx="955" dy="516" grid="1" gridSize="10" guides="1" tooltips="1" connect="1" arrows="1" fold="1" page="1" pageScale="1" pageWidth="850" pageHeight="1100" math="0" shadow="0">
      <root>
        <mxCell id="0" />
        <mxCell id="1" parent="0" />
        <mxCell id="aBJC0630Z5XYDCgpn6nu-148" value="" style="rounded=0;whiteSpace=wrap;html=1;" vertex="1" parent="1">
          <mxGeometry x="235" y="420" width="380.5" height="360" as="geometry" />
        </mxCell>
        <mxCell id="aBJC0630Z5XYDCgpn6nu-132" value="" style="rounded=0;whiteSpace=wrap;html=1;" vertex="1" parent="1">
          <mxGeometry x="90" y="40" width="595" height="290" as="geometry" />
        </mxCell>
        <mxCell id="aBJC0630Z5XYDCgpn6nu-94" style="edgeStyle=orthogonalEdgeStyle;rounded=0;orthogonalLoop=1;jettySize=auto;html=1;entryX=0.5;entryY=0;entryDx=0;entryDy=0;" edge="1" parent="1" target="aBJC0630Z5XYDCgpn6nu-93">
          <mxGeometry relative="1" as="geometry">
            <mxPoint x="225" y="160" as="sourcePoint" />
          </mxGeometry>
        </mxCell>
        <mxCell id="aBJC0630Z5XYDCgpn6nu-95" value="&lt;div&gt;Triggers&amp;nbsp;&lt;/div&gt;&lt;div&gt;Automated Tests&lt;/div&gt;" style="edgeLabel;html=1;align=center;verticalAlign=middle;resizable=0;points=[];" vertex="1" connectable="0" parent="aBJC0630Z5XYDCgpn6nu-94">
          <mxGeometry x="-0.2181" relative="1" as="geometry">
            <mxPoint x="-4" y="-20" as="offset" />
          </mxGeometry>
        </mxCell>
        <mxCell id="aBJC0630Z5XYDCgpn6nu-4" value="&lt;div&gt;User&lt;/div&gt;" style="shape=umlActor;verticalLabelPosition=bottom;verticalAlign=top;html=1;outlineConnect=0;gradientColor=none;shadow=0;" vertex="1" parent="1">
          <mxGeometry x="215" y="130" width="30" height="60" as="geometry" />
        </mxCell>
        <mxCell id="aBJC0630Z5XYDCgpn6nu-128" style="edgeStyle=orthogonalEdgeStyle;rounded=0;orthogonalLoop=1;jettySize=auto;html=1;exitX=1;exitY=0.5;exitDx=0;exitDy=0;entryX=0.5;entryY=0.5;entryDx=0;entryDy=0;entryPerimeter=0;" edge="1" parent="1" source="aBJC0630Z5XYDCgpn6nu-8" target="aBJC0630Z5XYDCgpn6nu-21">
          <mxGeometry relative="1" as="geometry">
            <mxPoint x="585" y="126.92592592592587" as="targetPoint" />
            <Array as="points">
              <mxPoint x="535" y="127" />
              <mxPoint x="535" y="160" />
            </Array>
          </mxGeometry>
        </mxCell>
        <mxCell id="aBJC0630Z5XYDCgpn6nu-8" value="&lt;div&gt;&lt;br&gt;&lt;/div&gt;&lt;div&gt;editor.cpp&lt;/div&gt;" style="shape=module;align=left;spacingLeft=20;align=center;verticalAlign=top;whiteSpace=wrap;html=1;" vertex="1" parent="1">
          <mxGeometry x="407" y="102" width="100" height="50" as="geometry" />
        </mxCell>
        <mxCell id="aBJC0630Z5XYDCgpn6nu-11" value="&lt;div&gt;&lt;br&gt;&lt;/div&gt;&lt;div&gt;generator.cpp&lt;/div&gt;" style="shape=module;align=left;spacingLeft=20;align=center;verticalAlign=top;whiteSpace=wrap;html=1;" vertex="1" parent="1">
          <mxGeometry x="407" y="207" width="100" height="50" as="geometry" />
        </mxCell>
        <mxCell id="aBJC0630Z5XYDCgpn6nu-125" style="edgeStyle=orthogonalEdgeStyle;rounded=0;orthogonalLoop=1;jettySize=auto;html=1;entryX=0.5;entryY=1;entryDx=0;entryDy=0;" edge="1" parent="1" source="aBJC0630Z5XYDCgpn6nu-21" target="aBJC0630Z5XYDCgpn6nu-8">
          <mxGeometry relative="1" as="geometry">
            <Array as="points">
              <mxPoint x="457" y="180" />
            </Array>
          </mxGeometry>
        </mxCell>
        <mxCell id="aBJC0630Z5XYDCgpn6nu-126" style="edgeStyle=orthogonalEdgeStyle;rounded=0;orthogonalLoop=1;jettySize=auto;html=1;entryX=0.5;entryY=0;entryDx=0;entryDy=0;" edge="1" parent="1" source="aBJC0630Z5XYDCgpn6nu-21" target="aBJC0630Z5XYDCgpn6nu-11">
          <mxGeometry relative="1" as="geometry">
            <Array as="points">
              <mxPoint x="457" y="180" />
            </Array>
          </mxGeometry>
        </mxCell>
        <mxCell id="aBJC0630Z5XYDCgpn6nu-127" value="Import Model" style="edgeLabel;html=1;align=center;verticalAlign=middle;resizable=0;points=[];" vertex="1" connectable="0" parent="aBJC0630Z5XYDCgpn6nu-126">
          <mxGeometry x="-0.0059" y="-2" relative="1" as="geometry">
            <mxPoint x="-28" y="-6" as="offset" />
          </mxGeometry>
        </mxCell>
        <mxCell id="aBJC0630Z5XYDCgpn6nu-21" value="&lt;div&gt;Exported Model&lt;/div&gt;&lt;div&gt;(JSON or binary)&lt;/div&gt;" style="shape=umlActor;verticalLabelPosition=bottom;verticalAlign=top;html=1;outlineConnect=0;" vertex="1" parent="1">
          <mxGeometry x="615" y="130" width="30" height="60" as="geometry" />
        </mxCell>
        <mxCell id="aBJC0630Z5XYDCgpn6nu-22" style="edgeStyle=orthogonalEdgeStyle;rounded=0;orthogonalLoop=1;jettySize=auto;html=1;entryX=0.098;entryY=0.498;entryDx=0;entryDy=0;entryPerimeter=0;" edge="1" parent="1" target="aBJC0630Z5XYDCgpn6nu-8">
          <mxGeometry relative="1" as="geometry">
            <mxPoint x="235" y="160" as="sourcePoint" />
            <Array as="points">
              <mxPoint x="255" y="160" />
              <mxPoint x="255" y="127" />
            </Array>
          </mxGeometry>
        </mxCell>
        <mxCell id="aBJC0630Z5XYDCgpn6nu-24" value="Uses Interactive Menu" style="edgeLabel;html=1;align=center;verticalAlign=middle;resizable=0;points=[];" vertex="1" connectable="0" parent="aBJC0630Z5XYDCgpn6nu-22">
          <mxGeometry x="0.606" relative="1" as="geometry">
            <mxPoint x="-40" y="-10" as="offset" />
          </mxGeometry>
        </mxCell>
        <mxCell id="aBJC0630Z5XYDCgpn6nu-23" style="edgeStyle=orthogonalEdgeStyle;rounded=0;orthogonalLoop=1;jettySize=auto;html=1;entryX=0.1;entryY=0.496;entryDx=0;entryDy=0;entryPerimeter=0;" edge="1" parent="1" target="aBJC0630Z5XYDCgpn6nu-11">
          <mxGeometry relative="1" as="geometry">
            <mxPoint x="235" y="160" as="sourcePoint" />
            <Array as="points">
              <mxPoint x="255" y="160" />
              <mxPoint x="255" y="232" />
            </Array>
          </mxGeometry>
        </mxCell>
        <mxCell id="aBJC0630Z5XYDCgpn6nu-25" value="Invokes Prediction Functions" style="edgeLabel;html=1;align=center;verticalAlign=middle;resizable=0;points=[];" vertex="1" connectable="0" parent="aBJC0630Z5XYDCgpn6nu-23">
          <mxGeometry x="0.4749" y="2" relative="1" as="geometry">
            <mxPoint x="-20" y="-8" as="offset" />
          </mxGeometry>
        </mxCell>
        <mxCell id="aBJC0630Z5XYDCgpn6nu-89" value="&lt;div&gt;&lt;br&gt;&lt;/div&gt;&lt;div&gt;fcm.cpp&lt;/div&gt;" style="shape=module;align=left;spacingLeft=20;align=center;verticalAlign=top;whiteSpace=wrap;html=1;" vertex="1" parent="1">
          <mxGeometry x="407" y="270" width="100" height="50" as="geometry" />
        </mxCell>
        <mxCell id="aBJC0630Z5XYDCgpn6nu-97" style="edgeStyle=orthogonalEdgeStyle;rounded=0;orthogonalLoop=1;jettySize=auto;html=1;exitX=1.001;exitY=0.56;exitDx=0;exitDy=0;entryX=0.101;entryY=0.513;entryDx=0;entryDy=0;entryPerimeter=0;exitPerimeter=0;" edge="1" parent="1" source="aBJC0630Z5XYDCgpn6nu-93" target="aBJC0630Z5XYDCgpn6nu-89">
          <mxGeometry relative="1" as="geometry">
            <Array as="points">
              <mxPoint x="325" y="258" />
              <mxPoint x="325" y="295" />
              <mxPoint x="405" y="295" />
            </Array>
          </mxGeometry>
        </mxCell>
        <mxCell id="aBJC0630Z5XYDCgpn6nu-90" style="edgeStyle=orthogonalEdgeStyle;rounded=0;orthogonalLoop=1;jettySize=auto;html=1;entryX=0.098;entryY=0.507;entryDx=0;entryDy=0;entryPerimeter=0;" edge="1" parent="1" target="aBJC0630Z5XYDCgpn6nu-89">
          <mxGeometry relative="1" as="geometry">
            <mxPoint x="245" y="160" as="sourcePoint" />
            <Array as="points">
              <mxPoint x="255" y="160" />
              <mxPoint x="255" y="295" />
              <mxPoint x="405" y="295" />
            </Array>
          </mxGeometry>
        </mxCell>
        <mxCell id="aBJC0630Z5XYDCgpn6nu-92" value="Invokes Training Functions" style="edgeLabel;html=1;align=center;verticalAlign=middle;resizable=0;points=[];" vertex="1" connectable="0" parent="aBJC0630Z5XYDCgpn6nu-90">
          <mxGeometry x="0.4763" y="-1" relative="1" as="geometry">
            <mxPoint x="1" y="-10" as="offset" />
          </mxGeometry>
        </mxCell>
        <mxCell id="aBJC0630Z5XYDCgpn6nu-93" value="&lt;div&gt;&lt;br&gt;&lt;/div&gt;&lt;div&gt;tests.cpp&lt;/div&gt;" style="shape=module;align=left;spacingLeft=20;align=center;verticalAlign=top;whiteSpace=wrap;html=1;" vertex="1" parent="1">
          <mxGeometry x="95" y="230" width="100" height="50" as="geometry" />
        </mxCell>
        <mxCell id="aBJC0630Z5XYDCgpn6nu-96" style="edgeStyle=orthogonalEdgeStyle;rounded=0;orthogonalLoop=1;jettySize=auto;html=1;exitX=1;exitY=0.5;exitDx=0;exitDy=0;entryX=0.1;entryY=0.5;entryDx=0;entryDy=0;entryPerimeter=0;" edge="1" parent="1" target="aBJC0630Z5XYDCgpn6nu-11">
          <mxGeometry relative="1" as="geometry">
            <mxPoint x="195" y="257" as="sourcePoint" />
            <mxPoint x="395" y="232" as="targetPoint" />
            <Array as="points">
              <mxPoint x="325" y="257" />
              <mxPoint x="325" y="232" />
            </Array>
          </mxGeometry>
        </mxCell>
        <mxCell id="aBJC0630Z5XYDCgpn6nu-98" value="&lt;div align=&quot;left&quot;&gt;All 3 modules on&amp;nbsp;&lt;/div&gt;&lt;div align=&quot;left&quot;&gt;the right interact with model implementations&lt;/div&gt;" style="shape=note;whiteSpace=wrap;html=1;backgroundOutline=1;darkOpacity=0.05;align=left;" vertex="1" parent="1">
          <mxGeometry x="267" y="137" width="140" height="70" as="geometry" />
        </mxCell>
        <mxCell id="aBJC0630Z5XYDCgpn6nu-129" style="edgeStyle=orthogonalEdgeStyle;rounded=0;orthogonalLoop=1;jettySize=auto;html=1;exitX=1;exitY=0.5;exitDx=0;exitDy=0;entryX=0.5;entryY=0.5;entryDx=0;entryDy=0;entryPerimeter=0;" edge="1" parent="1" source="aBJC0630Z5XYDCgpn6nu-11" target="aBJC0630Z5XYDCgpn6nu-21">
          <mxGeometry relative="1" as="geometry">
            <Array as="points">
              <mxPoint x="535" y="232" />
              <mxPoint x="535" y="160" />
            </Array>
          </mxGeometry>
        </mxCell>
        <mxCell id="aBJC0630Z5XYDCgpn6nu-130" style="edgeStyle=orthogonalEdgeStyle;rounded=0;orthogonalLoop=1;jettySize=auto;html=1;exitX=1;exitY=0.5;exitDx=0;exitDy=0;entryX=0.5;entryY=0.5;entryDx=0;entryDy=0;entryPerimeter=0;" edge="1" parent="1" source="aBJC0630Z5XYDCgpn6nu-89" target="aBJC0630Z5XYDCgpn6nu-21">
          <mxGeometry relative="1" as="geometry">
            <Array as="points">
              <mxPoint x="535" y="295" />
              <mxPoint x="535" y="160" />
            </Array>
          </mxGeometry>
        </mxCell>
        <mxCell id="aBJC0630Z5XYDCgpn6nu-131" value="Export Model" style="edgeLabel;html=1;align=center;verticalAlign=middle;resizable=0;points=[];" vertex="1" connectable="0" parent="aBJC0630Z5XYDCgpn6nu-130">
          <mxGeometry x="0.5524" y="-1" relative="1" as="geometry">
            <mxPoint y="-9" as="offset" />
          </mxGeometry>
        </mxCell>
        <mxCell id="aBJC0630Z5XYDCgpn6nu-134" value="&lt;h1 align=&quot;center&quot; style=&quot;margin-top: 0px;&quot;&gt;&lt;font style=&quot;font-size: 20px;&quot;&gt;Workflow Diagram&lt;/font&gt;&lt;/h1&gt;" style="text;html=1;whiteSpace=wrap;overflow=hidden;rounded=0;align=center;" vertex="1" parent="1">
          <mxGeometry x="277" y="40" width="230" height="40" as="geometry" />
        </mxCell>
        <mxCell id="aBJC0630Z5XYDCgpn6nu-137" value="&lt;div&gt;&lt;br&gt;&lt;/div&gt;&lt;div&gt;RFCMModel.cpp&lt;/div&gt;" style="shape=module;align=left;spacingLeft=20;align=center;verticalAlign=top;whiteSpace=wrap;html=1;" vertex="1" parent="1">
          <mxGeometry x="240" y="720" width="120" height="50" as="geometry" />
        </mxCell>
        <mxCell id="aBJC0630Z5XYDCgpn6nu-138" value="&lt;div&gt;&lt;br&gt;&lt;/div&gt;&lt;div&gt;FCMModel.h&lt;/div&gt;" style="shape=module;align=left;spacingLeft=20;align=center;verticalAlign=top;whiteSpace=wrap;html=1;" vertex="1" parent="1">
          <mxGeometry x="360" y="480" width="120" height="50" as="geometry" />
        </mxCell>
        <mxCell id="aBJC0630Z5XYDCgpn6nu-139" value="&lt;div&gt;&lt;br&gt;&lt;/div&gt;&lt;div&gt;FCMModel.cpp&lt;/div&gt;" style="shape=module;align=left;spacingLeft=20;align=center;verticalAlign=top;whiteSpace=wrap;html=1;" vertex="1" parent="1">
          <mxGeometry x="480" y="600" width="120" height="50" as="geometry" />
        </mxCell>
        <mxCell id="aBJC0630Z5XYDCgpn6nu-144" style="edgeStyle=orthogonalEdgeStyle;rounded=0;orthogonalLoop=1;jettySize=auto;html=1;exitX=0.5;exitY=1;exitDx=0;exitDy=0;entryX=0.5;entryY=0;entryDx=0;entryDy=0;" edge="1" parent="1" source="aBJC0630Z5XYDCgpn6nu-140" target="aBJC0630Z5XYDCgpn6nu-137">
          <mxGeometry relative="1" as="geometry" />
        </mxCell>
        <mxCell id="aBJC0630Z5XYDCgpn6nu-146" value="Implements" style="edgeLabel;html=1;align=center;verticalAlign=middle;resizable=0;points=[];" vertex="1" connectable="0" parent="aBJC0630Z5XYDCgpn6nu-144">
          <mxGeometry x="-0.1039" relative="1" as="geometry">
            <mxPoint as="offset" />
          </mxGeometry>
        </mxCell>
        <mxCell id="aBJC0630Z5XYDCgpn6nu-140" value="&lt;div&gt;&lt;br&gt;&lt;/div&gt;&lt;div&gt;RFCMModel.h&lt;/div&gt;" style="shape=module;align=left;spacingLeft=20;align=center;verticalAlign=top;whiteSpace=wrap;html=1;" vertex="1" parent="1">
          <mxGeometry x="240" y="600" width="120" height="50" as="geometry" />
        </mxCell>
        <mxCell id="aBJC0630Z5XYDCgpn6nu-141" value="" style="endArrow=none;dashed=1;html=1;rounded=0;exitX=0.586;exitY=0.013;exitDx=0;exitDy=0;exitPerimeter=0;entryX=0.5;entryY=1;entryDx=0;entryDy=0;" edge="1" parent="1" source="aBJC0630Z5XYDCgpn6nu-140" target="aBJC0630Z5XYDCgpn6nu-138">
          <mxGeometry width="50" height="50" relative="1" as="geometry">
            <mxPoint x="440" y="560" as="sourcePoint" />
            <mxPoint x="490" y="510" as="targetPoint" />
          </mxGeometry>
        </mxCell>
        <mxCell id="aBJC0630Z5XYDCgpn6nu-147" value="Extends" style="edgeLabel;html=1;align=center;verticalAlign=middle;resizable=0;points=[];" vertex="1" connectable="0" parent="aBJC0630Z5XYDCgpn6nu-141">
          <mxGeometry x="-0.166" y="2" relative="1" as="geometry">
            <mxPoint x="5" y="-9" as="offset" />
          </mxGeometry>
        </mxCell>
        <mxCell id="aBJC0630Z5XYDCgpn6nu-143" value="" style="endArrow=classic;html=1;rounded=0;entryX=0.5;entryY=0;entryDx=0;entryDy=0;exitX=0.5;exitY=1;exitDx=0;exitDy=0;" edge="1" parent="1" source="aBJC0630Z5XYDCgpn6nu-138" target="aBJC0630Z5XYDCgpn6nu-139">
          <mxGeometry width="50" height="50" relative="1" as="geometry">
            <mxPoint x="440" y="560" as="sourcePoint" />
            <mxPoint x="490" y="510" as="targetPoint" />
          </mxGeometry>
        </mxCell>
        <mxCell id="aBJC0630Z5XYDCgpn6nu-145" value="Implements" style="edgeLabel;html=1;align=center;verticalAlign=middle;resizable=0;points=[];" vertex="1" connectable="0" parent="aBJC0630Z5XYDCgpn6nu-143">
          <mxGeometry x="-0.147" relative="1" as="geometry">
            <mxPoint x="9" as="offset" />
          </mxGeometry>
        </mxCell>
        <mxCell id="aBJC0630Z5XYDCgpn6nu-150" value="&lt;h1 align=&quot;center&quot; style=&quot;margin-top: 0px;&quot;&gt;&lt;font style=&quot;font-size: 20px;&quot;&gt;FCM Model Hierarchy&lt;/font&gt;&lt;/h1&gt;" style="text;html=1;whiteSpace=wrap;overflow=hidden;rounded=0;align=center;" vertex="1" parent="1">
          <mxGeometry x="310" y="420" width="230" height="40" as="geometry" />
        </mxCell>
      </root>
    </mxGraphModel>
  </diagram>
</mxfile>
